# xmcd
#
# Track frame offsets: 
#        183
#        15045
#        29923
#        40863
#        50413
#        62023
#        74218
#        90045
#        107375
#        119588
#        128378
#        139848
#        150795
#        162790
#
# Disc length: 2332 seconds
#
# Revision: 0
# Processed by: cddbd v1.4PL0 Copyright (c) Steve Scherf et al.
# Submitted via: ExactAudioCopy v0.90b4
#
DISCID=a7091a0e
DTITLE=Del McCoury and The Dixie Pals - Live In Japan
DYEAR=1980
DGENRE=Bluegrass
TTITLE0=Katy Hill
TTITLE1=High On A Mountain
TTITLE2=Dark As The Night, Blue As The Day
TTITLE3=Whose Shoulder Will You Cry On
TTITLE4=Ground Speed
TTITLE5=Hang Your Head In Shame
TTITLE6=The Bluest Man In Town
TTITLE7=Roll On Buddy, Roll On
TTITLE8=Roll In My Sweet Baby's Arms
TTITLE9=Durham's Bull
TTITLE10=Are You Teasing Me
TTITLE11=Don't You Call My Name
TTITLE12=I've Endured
TTITLE13=Train 45
EXTD=
EXTT0=
EXTT1=
EXTT2=
EXTT3=
EXTT4=
EXTT5=
EXTT6=
EXTT7=
EXTT8=
EXTT9=
EXTT10=
EXTT11=
EXTT12=
EXTT13=
PLAYORDER=
